<svg xmlns="http://www.w3.org/2000/svg" width="19" height="16" viewBox="0 0 19 16">
    <path fill="#ADADAD" d="M16.778.546c.359.362.384.93.077 1.32l-.084.094-1.9 1.881c2.28 1.535 3.755 3.495 3.858 3.65.258.342.258.676 0 1.018C18.56 8.767 14.604 14 9.461 14c-1.4 0-2.714-.388-3.886-.959l-2.193 2.17c-.392.388-1.025.385-1.414-.008-.359-.362-.383-.93-.076-1.32l.083-.094 1.823-1.805C1.662 10.479.292 8.658.193 8.509c-.257-.342-.257-.676 0-1.018C.364 7.233 4.318 2 9.461 2c1.287 0 2.5.328 3.596.823L15.364.539c.393-.389 1.026-.386 1.414.007zm-3.722 5.091L11.457 7.22c.095.242.147.505.147.78 0 1.182-.96 2.143-2.143 2.143-.283 0-.553-.055-.8-.155l-1.6 1.582c.68.453 1.505.716 2.4.716 2.4 0 4.286-1.885 4.286-4.286 0-.88-.253-1.69-.691-2.363zM9.46 3.714C7.061 3.714 5.176 5.6 5.176 8c0 .766.191 1.48.53 2.096l1.66-1.642c-.031-.147-.048-.298-.048-.454 0-1.182.961-2.143 2.143-2.143.163 0 .322.018.475.053l1.661-1.642c-.625-.353-1.353-.554-2.136-.554z"/>
</svg>
