<svg xmlns="http://www.w3.org/2000/svg" width="28" height="28" viewBox="0 0 28 28">
    <path fill="#949494" d="M22.929 28h-.03c-4.783-.157-10.387-4.792-14.247-8.655C4.786 15.482.15 9.877 0 5.117-.054 3.447 4.045.476 4.087.447c1.064-.742 2.245-.478 2.73.193.328.455 3.436 5.163 3.774 5.697.35.554.298 1.38-.14 2.207-.24.46-1.041 1.867-1.416 2.523.405.577 1.476 1.992 3.689 4.204 2.215 2.212 3.627 3.286 4.206 3.691.656-.375 2.063-1.176 2.523-1.417.816-.432 1.636-.487 2.195-.144.572.35 5.268 3.473 5.7 3.773.364.256.597.694.645 1.203.044.515-.115 1.06-.445 1.534-.028.04-2.964 4.089-4.62 4.089z"/>
</svg>
