<svg xmlns="http://www.w3.org/2000/svg" width="90" height="90" viewBox="0 0 90 90">
    <g fill="#1A1919" fill-rule="evenodd">
        <path d="M0 21.892L3.096 21.892 3.096.223 0 .223zM0 31.18L3.096 31.18 3.096 24.988 0 24.988zM0 49.755L3.096 49.755 3.096 43.563 0 43.563zM0 59.042L3.096 59.042 3.096 55.947 0 55.947z"/>
        <g>
            <path d="M0 3.567L3.096 3.567 3.096.471 0 .471zM0 28.283L3.096 28.283 3.096 6.663 0 6.663z" transform="translate(0 61.667)"/>
        </g>
        <path d="M3.096 3.317L6.192 3.317 6.192.223 3.096.223zM3.096 21.893L6.192 21.893 6.192 18.797 3.096 18.797zM3.096 43.564L6.192 43.564 6.192 37.373 3.096 37.373zM3.096 52.851L6.192 52.851 6.192 49.755 3.096 49.755z"/>
        <g>
            <path d="M.596 3.092L3.692 3.092 3.692-.003.596-.003zM.596 21.617L3.692 21.617 3.692 18.572.596 18.572z" transform="translate(2.5 68.333)"/>
        </g>
        <path d="M6.192 3.317L9.287 3.317 9.287.223 6.192.223zM6.192 15.702L9.287 15.702 9.287 6.414 6.192 6.414zM6.192 21.893L9.287 21.893 9.287 18.797 6.192 18.797zM6.192 34.277L9.287 34.277 9.287 28.084 6.192 28.084zM6.192 40.468L9.287 40.468 9.287 37.373 6.192 37.373zM6.192 55.947L9.287 55.947 9.287 46.659 6.192 46.659zM6.192 65.235L9.287 65.235 9.287 59.042 6.192 59.042zM6.192 71.426L9.287 71.426 9.287 68.33 6.192 68.33z"/>
        <g>
            <path d="M.358 9.642L3.454 9.642 3.454.355.358.355zM.358 15.783L3.454 15.783 3.454 12.738.358 12.738z" transform="translate(5.833 74.167)"/>
        </g>
        <path d="M9.287 3.317L12.383 3.317 12.383.223 9.287.223zM9.287 15.702L12.383 15.702 12.383 6.414 9.287 6.414zM9.287 21.893L12.383 21.893 12.383 18.797 9.287 18.797zM9.287 34.277L12.383 34.277 12.383 24.988 9.287 24.988zM9.287 59.042L12.383 59.042 12.383 55.947 9.287 55.947zM9.287 65.234L12.383 65.234 12.383 62.138 9.287 62.138zM9.287 71.426L12.383 71.426 12.383 68.33 9.287 68.33z"/>
        <g>
            <path d="M.121 9.642L3.217 9.642 3.217.355.121.355zM.121 15.783L3.217 15.783 3.217 12.738.121 12.738z" transform="translate(9.167 74.167)"/>
        </g>
        <path d="M12.383 3.317L15.479 3.317 15.479.223 12.383.223zM12.383 15.702L15.479 15.702 15.479 6.414 12.383 6.414zM12.383 21.893L15.479 21.893 15.479 18.797 12.383 18.797zM12.383 37.373L15.479 37.373 15.479 28.084 12.383 28.084zM12.383 46.66L15.479 46.66 15.479 40.468 12.383 40.468zM12.383 55.947L15.479 55.947 15.479 52.851 12.383 52.851zM12.383 65.235L15.479 65.235 15.479 59.042 12.383 59.042zM12.383 71.426L15.479 71.426 15.479 68.33 12.383 68.33z"/>
        <g>
            <path d="M.717 9.642L3.813 9.642 3.813.355.717.355zM.717 15.783L3.813 15.783 3.813 12.738.717 12.738z" transform="translate(11.667 74.167)"/>
        </g>
        <path d="M15.479 3.317L18.575 3.317 18.575.223 15.479.223zM15.479 21.893L18.575 21.893 18.575 18.797 15.479 18.797zM15.479 34.277L18.575 34.277 18.575 24.988 15.479 24.988zM15.479 52.851L18.575 52.851 18.575 49.755 15.479 49.755zM15.479 65.235L18.575 65.235 18.575 59.042 15.479 59.042z"/>
        <g>
            <path d="M.479 3.092L3.575 3.092 3.575-.003.479-.003zM.479 21.617L3.575 21.617 3.575 18.572.479 18.572z" transform="translate(15 68.333)"/>
        </g>
        <path d="M18.575 21.892L21.671 21.892 21.671.223 18.575.223zM18.575 28.084L21.671 28.084 21.671 24.988 18.575 24.988zM18.575 34.277L21.671 34.277 21.671 31.18 18.575 31.18zM18.575 40.468L21.671 40.468 21.671 37.373 18.575 37.373zM18.575 46.659L21.671 46.659 21.671 43.563 18.575 43.563zM18.575 52.851L21.671 52.851 21.671 49.755 18.575 49.755zM18.575 59.042L21.671 59.042 21.671 55.947 18.575 55.947z"/>
        <g>
            <path d="M.242 3.567L3.337 3.567 3.337.471.242.471zM.242 28.283L3.337 28.283 3.337 6.663.242 6.663z" transform="translate(18.333 61.667)"/>
        </g>
        <path d="M21.671 34.277L24.767 34.277 24.767 28.084 21.671 28.084zM21.671 40.468L24.767 40.468 24.767 37.373 21.671 37.373zM21.671 46.659L24.767 46.659 24.767 43.563 21.671 43.563zM24.767 21.893L27.863 21.893 27.863 15.702 24.767 15.702zM24.767 28.084L27.863 28.084 27.863 24.988 24.767 24.988zM24.767 37.373L27.863 37.373 27.863 31.18 24.767 31.18zM24.767 43.564L27.863 43.564 27.863 40.468 24.767 40.468zM24.767 52.851L27.863 52.851 27.863 46.659 24.767 46.659zM24.767 68.33L27.863 68.33 27.863 62.138 24.767 62.138zM24.767 74.522L27.863 74.522 27.863 71.426 24.767 71.426z"/>
        <g>
            <path d="M.6 3.213L3.696 3.213 3.696.117.6.117zM.6 12.45L3.696 12.45 3.696 9.405.6 9.405z" transform="translate(24.167 77.5)"/>
        </g>
        <path d="M27.863 3.317L30.958 3.317 30.958.223 27.863.223zM27.863 12.606L30.958 12.606 30.958 6.414 27.863 6.414zM27.863 40.468L30.958 40.468 30.958 24.988 27.863 24.988zM27.863 49.755L30.958 49.755 30.958 46.659 27.863 46.659zM27.863 62.138L30.958 62.138 30.958 59.042 27.863 59.042zM27.863 71.426L30.958 71.426 30.958 65.234 27.863 65.234zM27.863 86.905L30.958 86.905 30.958 77.618 27.863 77.618zM30.958 12.606L34.054 12.606 34.054 9.51 30.958 9.51zM30.958 21.893L34.054 21.893 34.054 18.797 30.958 18.797zM30.958 31.18L34.054 31.18 34.054 28.084 30.958 28.084zM30.958 46.659L34.054 46.659 34.054 37.373 30.958 37.373zM30.958 59.042L34.054 59.042 34.054 52.851 30.958 52.851zM30.958 80.713L34.054 80.713 34.054 77.618 30.958 77.618zM34.054 3.317L37.151 3.317 37.151.223 34.054.223zM34.054 12.606L37.151 12.606 37.151 6.414 34.054 6.414zM34.054 18.797L37.151 18.797 37.151 15.702 34.054 15.702zM34.054 24.988L37.151 24.988 37.151 21.892 34.054 21.892zM34.054 31.18L37.151 31.18 37.151 28.084 34.054 28.084zM34.054 37.373L37.151 37.373 37.151 34.277 34.054 34.277zM34.054 43.564L37.151 43.564 37.151 40.468 34.054 40.468zM34.054 52.851L37.151 52.851 37.151 49.755 34.054 49.755zM34.054 65.235L37.151 65.235 37.151 59.042 34.054 59.042zM34.054 71.426L37.151 71.426 37.151 68.33 34.054 68.33z"/>
        <g>
            <path d="M.721 3.451L3.817 3.451 3.817.355.721.355zM.721 15.783L3.817 15.783 3.817 9.642.721 9.642z" transform="translate(33.333 74.167)"/>
        </g>
        <path d="M37.151 12.606L40.247 12.606 40.247.223 37.151.223zM37.151 31.18L40.247 31.18 40.247 18.797 37.151 18.797zM37.151 40.468L40.247 40.468 40.247 34.277 37.151 34.277zM37.151 46.659L40.247 46.659 40.247 43.563 37.151 43.563zM37.151 52.851L40.247 52.851 40.247 49.755 37.151 49.755zM37.151 80.713L40.247 80.713 40.247 65.234 37.151 65.234zM40.247 12.606L43.343 12.606 43.343 9.51 40.247 9.51zM40.247 24.988L43.343 24.988 43.343 21.892 40.247 21.892zM40.247 37.373L43.343 37.373 43.343 28.084 40.247 28.084zM40.247 46.66L43.343 46.66 43.343 40.468 40.247 40.468z"/>
        <g>
            <path d="M.247 6.78L3.342 6.78 3.342.588.247.588zM.247 40.783L3.342 40.783 3.342 31.546.247 31.546z" transform="translate(40 49.167)"/>
        </g>
        <path d="M43.342 3.317L46.438 3.317 46.438.223 43.342.223zM43.342 9.51L46.438 9.51 46.438 6.414 43.342 6.414zM43.342 21.893L46.438 21.893 46.438 18.797 43.342 18.797zM43.342 28.084L46.438 28.084 46.438 24.988 43.342 24.988zM43.342 34.277L46.438 34.277 46.438 31.18 43.342 31.18zM43.342 46.659L46.438 46.659 46.438 37.373 43.342 37.373zM43.342 62.138L46.438 62.138 46.438 52.851 43.342 52.851zM43.342 68.33L46.438 68.33 46.438 65.234 43.342 65.234zM43.342 74.522L46.438 74.522 46.438 71.426 43.342 71.426zM43.342 83.808L46.438 83.808 46.438 80.713 43.342 80.713zM46.438 9.51L49.534 9.51 49.534 6.414 46.438 6.414zM46.438 18.797L49.534 18.797 49.534 15.702 46.438 15.702zM46.438 28.084L49.534 28.084 49.534 24.988 46.438 24.988zM46.438 40.468L49.534 40.468 49.534 34.277 46.438 34.277zM46.438 52.851L49.534 52.851 49.534 49.755 46.438 49.755z"/>
        <g>
            <path d="M.604 3.451L3.701 3.451 3.701.355.604.355zM.604 15.783L3.701 15.783 3.701 9.642.604 9.642z" transform="translate(45.833 74.167)"/>
        </g>
        <path d="M49.534 6.414L52.63 6.414 52.63 3.317 49.534 3.317zM49.534 21.893L52.63 21.893 52.63 15.702 49.534 15.702zM49.534 28.084L52.63 28.084 52.63 24.988 49.534 24.988zM49.534 40.468L52.63 40.468 52.63 31.18 49.534 31.18zM49.534 49.755L52.63 49.755 52.63 46.659 49.534 46.659zM49.534 55.947L52.63 55.947 52.63 52.851 49.534 52.851zM49.534 68.331L52.63 68.331 52.63 59.042 49.534 59.042zM49.534 80.713L52.63 80.713 52.63 71.426 49.534 71.426zM49.534 86.905L52.63 86.905 52.63 83.808 49.534 83.808zM52.63 9.51L55.725 9.51 55.725 6.414 52.63 6.414zM52.63 24.988L55.725 24.988 55.725 21.892 52.63 21.892zM52.63 34.277L55.725 34.277 55.725 28.084 52.63 28.084zM52.63 40.468L55.725 40.468 55.725 37.373 52.63 37.373zM52.63 52.85L55.725 52.85 55.725 43.563 52.63 43.563zM52.63 62.138L55.725 62.138 55.725 55.947 52.63 55.947z"/>
        <g>
            <path d="M.13 3.33L3.225 3.33 3.225.234.13.234zM.13 24.95L3.225 24.95 3.225 9.522.13 9.522z" transform="translate(52.5 65)"/>
        </g>
        <path d="M55.725 12.606L58.822 12.606 58.822 6.414 55.725 6.414zM55.725 21.893L58.822 21.893 58.822 15.702 55.725 15.702zM55.725 37.373L58.822 37.373 58.822 28.084 55.725 28.084zM55.725 49.756L58.822 49.756 58.822 40.468 55.725 40.468zM55.725 62.138L58.822 62.138 58.822 52.851 55.725 52.851zM55.725 68.33L58.822 68.33 58.822 65.234 55.725 65.234zM55.725 86.905L58.822 86.905 58.822 83.808 55.725 83.808zM58.822 3.317L61.917 3.317 61.917.223 58.822.223zM58.822 9.51L61.917 9.51 61.917 6.414 58.822 6.414zM58.822 18.797L61.917 18.797 61.917 15.702 58.822 15.702zM58.822 37.373L61.917 37.373 61.917 31.18 58.822 31.18zM58.822 43.564L61.917 43.564 61.917 40.468 58.822 40.468zM58.822 52.851L61.917 52.851 61.917 46.659 58.822 46.659z"/>
        <g>
            <path d="M.488 3.805L3.584 3.805 3.584.709.488.709zM.488 31.617L3.584 31.617 3.584 22.379.488 22.379z" transform="translate(58.333 58.333)"/>
        </g>
        <path d="M61.917 9.51L65.013 9.51 65.013 3.317 61.917 3.317zM61.917 21.893L65.013 21.893 65.013 15.702 61.917 15.702zM61.917 37.372L65.013 37.372 65.013 24.988 61.917 24.988z"/>
        <g>
            <path d="M.25 9.756L3.346 9.756 3.346.468.25.468zM.25 49.95L3.346 49.95 3.346 22.137.25 22.137z" transform="translate(61.667 40)"/>
        </g>
        <path d="M65.013 28.084L68.108 28.084 68.108 24.988 65.013 24.988zM65.013 34.277L68.108 34.277 68.108 31.18 65.013 31.18zM65.013 43.564L68.108 43.564 68.108 37.373 65.013 37.373zM65.013 65.234L68.108 65.234 68.108 49.755 65.013 49.755zM65.013 77.618L68.108 77.618 68.108 74.522 65.013 74.522zM68.108 21.892L71.205 21.892 71.205.223 68.108.223zM68.108 31.18L71.205 31.18 71.205 28.084 68.108 28.084zM68.108 40.468L71.205 40.468 71.205 34.277 68.108 34.277zM68.108 46.659L71.205 46.659 71.205 43.563 68.108 43.563zM68.108 55.947L71.205 55.947 71.205 52.851 68.108 52.851zM68.108 65.235L71.205 65.235 71.205 59.042 68.108 59.042zM68.108 71.426L71.205 71.426 71.205 68.33 68.108 68.33zM68.108 80.713L71.205 80.713 71.205 74.522 68.108 74.522zM68.108 86.905L71.205 86.905 71.205 83.808 68.108 83.808zM71.205 3.317L74.301 3.317 74.301.223 71.205.223zM71.205 21.893L74.301 21.893 74.301 18.797 71.205 18.797zM71.205 28.084L74.301 28.084 74.301 24.988 71.205 24.988zM71.205 37.373L74.301 37.373 74.301 34.277 71.205 34.277zM71.205 49.755L74.301 49.755 74.301 46.659 71.205 46.659zM71.205 59.042L74.301 59.042 74.301 52.851 71.205 52.851zM71.205 65.234L74.301 65.234 74.301 62.138 71.205 62.138zM71.205 80.713L74.301 80.713 74.301 74.522 71.205 74.522zM71.205 86.905L74.301 86.905 74.301 83.808 71.205 83.808zM74.301 3.317L77.397 3.317 77.397.223 74.301.223zM74.301 15.702L77.397 15.702 77.397 6.414 74.301 6.414zM74.301 21.893L77.397 21.893 77.397 18.797 74.301 18.797zM74.301 34.277L77.397 34.277 77.397 31.18 74.301 31.18zM74.301 46.659L77.397 46.659 77.397 43.563 74.301 43.563zM74.301 59.042L77.397 59.042 77.397 55.947 74.301 55.947zM74.301 83.808L77.397 83.808 77.397 62.138 74.301 62.138zM77.397 3.317L80.493 3.317 80.493.223 77.397.223zM77.397 15.702L80.493 15.702 80.493 6.414 77.397 6.414zM77.397 21.893L80.493 21.893 80.493 18.797 77.397 18.797zM77.397 34.277L80.493 34.277 80.493 28.084 77.397 28.084zM77.397 40.468L80.493 40.468 80.493 37.373 77.397 37.373zM77.397 49.755L80.493 49.755 80.493 43.563 77.397 43.563zM77.397 55.947L80.493 55.947 80.493 52.851 77.397 52.851zM77.397 74.522L80.493 74.522 80.493 71.426 77.397 71.426z"/>
        <g>
            <path d="M.73 6.308L3.826 6.308 3.826.117.73.117zM.73 12.45L3.826 12.45 3.826 9.405.73 9.405z" transform="translate(76.667 77.5)"/>
        </g>
        <path d="M80.492 3.317L83.588 3.317 83.588.223 80.492.223zM80.492 15.702L83.588 15.702 83.588 6.414 80.492 6.414zM80.492 21.893L83.588 21.893 83.588 18.797 80.492 18.797zM80.492 37.373L83.588 37.373 83.588 31.18 80.492 31.18zM80.492 46.659L83.588 46.659 83.588 43.563 80.492 43.563zM80.492 68.33L83.588 68.33 83.588 62.138 80.492 62.138zM80.492 74.522L83.588 74.522 83.588 71.426 80.492 71.426zM80.492 83.808L83.588 83.808 83.588 77.618 80.492 77.618zM83.588 3.317L86.684 3.317 86.684.223 83.588.223zM83.588 21.893L86.684 21.893 86.684 18.797 83.588 18.797zM83.588 40.468L86.684 40.468 86.684 31.18 83.588 31.18zM83.588 52.85L86.684 52.85 86.684 43.563 83.588 43.563zM83.588 62.138L86.684 62.138 86.684 55.947 83.588 55.947zM83.588 71.426L86.684 71.426 86.684 65.234 83.588 65.234zM83.588 80.713L86.684 80.713 86.684 77.618 83.588 77.618zM83.588 89.95L86.684 89.95 86.684 83.808 83.588 83.808zM86.684 21.892L89.78 21.892 89.78.223 86.684.223zM86.684 31.18L89.78 31.18 89.78 28.084 86.684 28.084zM86.684 40.468L89.78 40.468 89.78 37.373 86.684 37.373zM86.684 46.659L89.78 46.659 89.78 43.563 86.684 43.563zM86.684 62.138L89.78 62.138 89.78 52.851 86.684 52.851zM86.684 68.33L89.78 68.33 89.78 65.234 86.684 65.234zM86.684 77.618L89.78 77.618 89.78 71.426 86.684 71.426zM86.684 83.808L89.78 83.808 89.78 80.713 86.684 80.713z"/>
    </g>
</svg>
