<svg xmlns="http://www.w3.org/2000/svg" width="19" height="12" viewBox="0 0 19 12">
    <path fill="#ADADAD" d="M9.461 0C4.318 0 .364 5.233.193 5.491c-.257.342-.257.676 0 1.018C.364 6.767 4.318 12 9.461 12c5.143 0 9.097-5.233 9.268-5.491.258-.342.258-.676 0-1.018C18.56 5.233 14.604 0 9.461 0zm0 1.714c2.4 0 4.286 1.885 4.286 4.286 0 2.4-1.885 4.286-4.286 4.286-2.4 0-4.285-1.885-4.285-4.286 0-2.4 1.885-4.286 4.285-4.286zm0 2.143c-1.182 0-2.143.961-2.143 2.143s.961 2.143 2.143 2.143S11.604 7.182 11.604 6s-.96-2.143-2.143-2.143z"/>
</svg>
